<svg t="1586140537541" class="icon" viewBox="0 0 1024 1024" version="1.1"
                      xmlns="http://www.w3.org/2000/svg" p-id="17646" width="18" height="18">
                      <path
                        d="M175.3 740c-4.5 0-9-1.7-12.5-5-9.9-9.5-19.3-19.4-27.9-29.3-6.5-7.5-5.7-18.9 1.8-25.4s18.9-5.7 25.4 1.8c7.9 9.1 16.6 18.1 25.7 26.9 7.2 6.9 7.4 18.3 0.5 25.5-3.5 3.6-8.2 5.5-13 5.5z"
                        fill="" p-id="17647"></path>
                      <path
                        d="M690.5 930.4c-166.1 0-340.8-54.4-467.4-145.6-8.1-5.8-9.9-17.1-4.1-25.1 5.8-8.1 17.1-9.9 25.1-4.1 120.7 86.9 287.6 138.8 446.4 138.8 153.4 0 207.2-131.1 225.7-209.2 14.9-63.3 17.7-136.3 7.7-200.5-9.9-63.2-29.5-99.1-44.6-106.6-48.3-24.1-98.9-56.9-152.6-91.6-119-77-242-156.6-358.6-156.9h-0.1c-41.5 0-106.3 46.6-161.3 115.9-64.1 80.8-104.8 177.3-111.8 265-2.9 36.3 5.5 73.5 24.9 110.5 4.6 8.8 1.2 19.7-7.6 24.3s-19.7 1.2-24.3-7.6c-22.6-43.1-32.3-86.9-28.9-130 7.5-94.6 51-198.3 119.4-284.5 63.4-79.9 136-129.6 189.5-129.6h0.2c57.3 0.1 120.5 17.5 193.4 53.1 63 30.8 124.9 70.8 184.7 109.5 52.8 34.2 102.7 66.4 149.1 89.7 16 8 29.9 25 41.3 50.5 9.9 22.2 17.8 50.8 22.8 82.7 10.8 68.6 7.8 146.7-8.2 214.4-16 67.6-44.7 124.4-83.1 164.3-46.4 48.2-106.2 72.6-177.6 72.6z"
                        fill="" p-id="17648"></path>
                      <path
                        d="M644.8 784.9c-62.9 0-131.3-15.1-203.4-45-60.2-24.9-123.2-60.2-187.2-104.8C145.5 559.6 72.3 484.1 69.3 481c-6.9-7.2-6.7-18.5 0.4-25.5 7.2-6.9 18.5-6.7 25.4 0.4 0.7 0.8 74.2 76.4 180.1 150.1 96.6 67.2 240.7 146.4 378.9 142.8 86.8-2.3 150.5-45.9 189.5-129.4 36.1-77.3 43.7-171.4 43.7-236.6 0-9.9 8.1-18 18-18s18 8.1 18 18c0 68.9-8.2 168.5-47.1 251.9-20.7 44.5-48.2 79.6-81.7 104.6-38.7 28.8-85.6 44.1-139.4 45.6h-10.3z"
                        fill="" p-id="17649"></path>
                      <path
                        d="M336.9 592.9c-0.9 0-1.8-0.1-2.8-0.2-9.8-1.5-16.6-10.7-15.1-20.5 9.1-59.3 34.6-124.8 69.9-179.7 18.9-29.3 39.7-54.4 61.8-74.5 24.7-22.3 50.5-37.9 76.7-46.4 9.5-3.1 19.6 2.1 22.7 11.6 3.1 9.5-2.1 19.6-11.6 22.7-89.4 28.9-167.3 163.8-183.9 271.8-1.3 8.8-9 15.2-17.7 15.2zM518.5 671.4c-0.6 0-1.2 0-1.8-0.1-9.9-1-17.1-9.8-16.1-19.7 3.8-38.1 20.4-100.2 55.6-160.2 27.5-47 76.4-109.4 153-139.8 9.2-3.7 19.7 0.9 23.4 10.1 3.7 9.2-0.9 19.7-10.1 23.4-125.1 49.6-179.3 203.4-186 270.1-1.1 9.2-8.9 16.2-18 16.2z"
                        fill="" p-id="17650"></path>
                      <path
                        d="M659 655.6c-95.2 0-193.2-49.3-260.3-92.1C315.9 510.6 252 450 233 423.8c-5.8-8.1-4-19.3 4-25.1 8.1-5.8 19.3-4 25.1 4 16.8 23.2 77.9 80.7 155.9 130.4 66.6 42.5 165 91.9 255.8 86 9.9-0.7 18.5 6.9 19.1 16.8 0.6 9.9-6.9 18.5-16.8 19.1-5.6 0.4-11.4 0.6-17.1 0.6zM789 489.7c-0.5 0-1 0-1.6-0.1-113.3-9.7-215.1-58.6-280.5-97.9-83.6-50.3-141.5-104.1-165.7-135-6.1-7.8-4.8-19.1 3.1-25.3 7.8-6.1 19.1-4.8 25.3 3.1 24 30.7 81.6 81.6 155.9 126.3 62.2 37.4 158.7 83.8 265.1 92.9 9.9 0.8 17.2 9.6 16.4 19.5-0.9 9.4-8.7 16.5-18 16.5z"
                        fill="" p-id="17651"></path>
                    </svg>