<svg t="1586140428164" class="icon" viewBox="0 0 1024 1024" version="1.1"
                      xmlns="http://www.w3.org/2000/svg" p-id="12324" width="18" height="18">
                      <path
                        d="M854.5 441.2H216.4c-8.3 0-15-6.7-15-15v-40.8c0-57.7 22.5-112 63.3-152.8 40.8-40.8 95.1-63.3 152.8-63.3h235.8c57.7 0 112 22.5 152.8 63.3 40.8 40.8 63.3 95.1 63.3 152.8v40.8c0.1 8.3-6.6 15-14.9 15z m-623.1-30h608.1v-25.8c0-102.6-83.5-186.2-186.2-186.2H417.5c-102.6 0-186.2 83.5-186.2 186.2v25.8z"
                        fill="" p-id="12325"></path>
                      <path
                        d="M217.2 528.7c-3.9 0-7.8-1.5-10.6-4.4-3.9-3.9-5.4-9.7-3.7-15.1l26.7-85.7c2-6.3 7.8-10.5 14.3-10.5h558c5.2 0 10.1 2.7 12.8 7.2l51.7 85.3c3.4 5.5 2.8 12.6-1.4 17.5-4.2 4.9-11.1 6.6-17.1 4.1l-24.1-9.9c-8.6-3.5-18.1-3.6-26.8-0.2l-5.4 2.1c-16.3 6.4-34.8 6.1-50.8-1-9-4-19.4-4.1-28.4-0.2l-5.9 2.5c-15 6.3-31.8 6.9-47.2 1.5l-16.3-5.7c-8.5-3-17.7-2.6-26 0.9l-4 1.7c-16.2 7-34.9 7.1-51.2 0.4l-3.9-1.6c-8.9-3.7-19.1-3.6-27.9 0.2l-2.3 1c-16.3 7-35.1 7.1-51.5 0.3l-3.3-1.4c-8.9-3.7-19-3.7-27.9 0.1l-3.9 1.6c-15.7 6.7-33.1 7-49.1 1l-9.9-3.7c-8.5-3.2-17.8-3.1-26.3 0.3l-8.6 3.5c-14.3 5.8-30.2 6.5-44.9 1.8l-20.1-6.4c-7-2.2-14.4-2.3-21.5-0.1L221.6 528c-1.4 0.5-2.9 0.7-4.4 0.7z m414.1-44.4c7.3 0 14.6 1.2 21.7 3.7l16.3 5.7c8.4 2.9 17.5 2.6 25.7-0.8l5.9-2.5c16.6-7 35.7-6.8 52.2 0.4 8.7 3.8 18.8 4 27.7 0.5l5.4-2.1c10.6-4.2 21.9-5.5 33-4L793.5 443H255l-15 48 12.2-3.8c12.9-4 26.6-3.9 39.4 0.2l20.1 6.4c8 2.5 16.7 2.2 24.5-1l8.6-3.5c15.5-6.3 32.6-6.5 48.2-0.6l9.9 3.7c8.7 3.3 18.2 3.1 26.7-0.5l3.9-1.6c16.3-6.9 34.9-6.9 51.2-0.1l3.3 1.4c8.9 3.7 19.2 3.7 28.1-0.1l2.3-1c16.2-7 34.9-7.1 51.2-0.4l3.9 1.6c8.9 3.7 19.1 3.6 27.9-0.2l4-1.7c8.2-3.7 17-5.5 25.9-5.5z"
                        fill="" p-id="12326"></path>
                      <path
                        d="M273.8 630.4c-2.5 0-5.1-0.6-7.5-2-22.7-13-36.8-37.3-36.8-63.4 0-30.2 19-57.7 47.4-68.3 7.8-2.9 16.4 1 19.3 8.7 2.9 7.8-1 16.4-8.7 19.3-16.7 6.3-28 22.5-28 40.3 0 15.3 8.3 29.6 21.8 37.3 7.2 4.1 9.7 13.3 5.5 20.5-2.8 4.9-7.8 7.6-13 7.6zM793.2 632.5c-5.6 0-11-3.2-13.6-8.5-3.6-7.5-0.4-16.4 7.1-20 15-7.1 24.7-22.4 24.7-38.9 0-17.3-10.9-33.4-27-39.9-7.7-3.1-11.4-11.9-8.3-19.5 3.1-7.7 11.8-11.4 19.5-8.3 27.8 11.3 45.8 37.8 45.8 67.7 0 28-16.4 53.9-41.8 65.9-2.1 1-4.3 1.5-6.4 1.5z"
                        fill="" p-id="12327"></path>
                      <path
                        d="M737 790.7H333.9c-73.1 0-132.5-59.4-132.5-132.5v-37.9c0-8.3 6.7-15 15-15H568c22.8 0 41.4 18.6 41.4 41.4v28.9c0 5.6 4.7 10.3 10.3 10.3s10.3-4.7 10.3-10.3v-28.9c0-22.8 18.6-41.4 41.4-41.4s41.4 18.6 41.4 41.4v4.7c0 5.6 4.7 10.3 10.3 10.3s10.3-4.7 10.3-10.3v-4.7c0-22.8 18.6-41.4 41.4-41.4h79.8c8.3 0 15 6.7 15 15v37.9c-0.1 73-59.5 132.5-132.6 132.5zM231.4 635.3v22.9c0 56.5 46 102.5 102.5 102.5H737c56.5 0 102.5-46 102.5-102.5v-22.9h-64.8c-6.3 0-11.4 5.1-11.4 11.4v4.7c0 22.2-18.1 40.3-40.3 40.3s-40.3-18.1-40.3-40.3v-4.7c0-6.3-5.1-11.4-11.4-11.4s-11.4 5.1-11.4 11.4v28.9c0 22.2-18.1 40.3-40.3 40.3-22.2 0-40.3-18.1-40.3-40.3v-28.9c0-6.3-5.1-11.4-11.4-11.4H231.4z"
                        fill="" p-id="12328"></path>
                      <path d="M431.5 272.6m-17.4 0a17.4 17.4 0 1 0 34.8 0 17.4 17.4 0 1 0-34.8 0Z" fill="" p-id="12329">
                      </path>
                      <path d="M322.7 339.8m-17.4 0a17.4 17.4 0 1 0 34.8 0 17.4 17.4 0 1 0-34.8 0Z" fill="" p-id="12330">
                      </path>
                      <path d="M547.7 339.8m-17.4 0a17.4 17.4 0 1 0 34.8 0 17.4 17.4 0 1 0-34.8 0Z" fill="" p-id="12331">
                      </path>
                      <path d="M754.4 338.5m-17.4 0a17.4 17.4 0 1 0 34.8 0 17.4 17.4 0 1 0-34.8 0Z" fill="" p-id="12332">
                      </path>
                      <path d="M647.6 272.6m-17.4 0a17.4 17.4 0 1 0 34.8 0 17.4 17.4 0 1 0-34.8 0Z" fill="" p-id="12333">
                      </path>
                    </svg>