<svg t="1586140308639" class="icon" viewBox="0 0 1024 1024" version="1.1"
                      xmlns="http://www.w3.org/2000/svg" p-id="8108" width="18" height="18">
                      <path
                        d="M199 757c28.3 0 56.3-8.6 80-25.1 63.1-44.1 78.6-131.2 34.5-194.3-23.4-33.5-59.6-54.4-99.3-58.6l39.3-247.8c22 5.5 43.6 11.8 64.6 19-25.9 26.4-40.9 62.2-40.4 99.7 1 76.3 63.4 137.8 139.5 137.8h1.8c37.3-0.5 72.1-15.4 98.2-42.1 18.3-18.7 30.2-41.8 35.8-66.7 14.2 11.3 28.2 23.2 41.9 35.6 3.4 3.1 7.8 4.7 12.1 4.7 4.9 0 9.8-2 13.3-5.9 6.7-7.4 6.1-18.8-1.2-25.4-104-94.5-225.1-159-360-192.3l6.8-42.8c1.8-11.4 7.9-21.1 17.2-27.4 9.1-6.2 20.2-8.2 31.2-5.6 42.9 9.8 69.6 17.9 106.1 32.3 9.2 3.7 19.7-0.9 23.4-10.1 3.7-9.2-0.9-19.7-10.1-23.3-37.9-15-67-23.9-111.3-34-20.8-4.7-41.9-0.9-59.4 10.9-17.6 11.9-29.2 30.2-32.6 51.6L112.9 887c-2.7 17 3.7 33.5 17.2 44.2 8.6 6.8 18.8 10.3 29.1 10.3 6 0 12-1.1 17.8-3.5l143.1-57.7c9.2-3.7 13.7-14.2 10-23.4s-14.2-13.7-23.4-10l-143.2 57.7c-5.4 2.1-9.5-0.4-11-1.6-1.5-1.2-5-4.6-4-10.4l22-138.8c9.4 1.9 18.9 3.2 28.5 3.2z m292.4-336.7c-19.3 19.8-45.2 30.9-72.8 31.3-56.1 0.2-104.1-45.1-104.9-102.2-0.4-33 15.2-64.6 41.7-84.4l-1.2-1.6c58.9 23.3 114 53.2 165.9 90.6-1.3 24.9-11.1 48.3-28.7 66.3zM284 558.2c32.7 46.8 21.2 111.5-25.6 144.2-24 16.8-54 22.5-82.2 16.1l32.4-204c30.1 2.7 57.6 18.3 75.4 43.7z"
                        p-id="8109"></path>
                      <path
                        d="M478.3 176c4.3 2 5.7 2.7 8.3 4l4.6 2.3c2.6 1.3 5.3 1.9 8.1 1.9 6.6 0 12.9-3.6 16.1-9.9 4.5-8.9 0.9-19.7-8-24.1L503 148c-2.8-1.5-4.4-2.3-9.3-4.5-9-4.3-19.7-0.4-23.9 8.6-4.4 9-0.5 19.7 8.5 23.9zM904.7 557.8c-77.1-166.7-187.4-289-337.1-373.8-8.6-4.9-19.6-1.9-24.5 6.8-4.9 8.6-1.9 19.6 6.8 24.5 142.9 81 248.3 198 322.2 357.7 4.5 9.8 4.8 20.8 0.8 31-4.1 10.5-12.1 18.5-22.5 22.7l-140.9 57.2c-1.9-17.1-6.8-33.8-14.8-49.2-35.4-68.3-119.8-95.1-188.1-59.7-68.3 35.4-95.1 119.8-59.7 188.1 4 7.7 8.8 14.9 14.1 21.6l-78.3 31.8c-9.2 3.8-13.6 14.3-9.9 23.5 2.8 7 9.6 11.2 16.7 11.2 2.3 0 4.5-0.4 6.8-1.3L863.8 660c19.3-7.8 34.8-23.4 42.5-42.8 7.7-19.5 7.1-40.6-1.6-59.4zM478.8 746.4c-26.3-50.7-6.4-113.3 44.3-139.6 50.7-26.2 113.3-6.4 139.6 44.3 7.5 14.6 11.4 30.7 11.5 46.9l-178 72.2c-6.9-7-12.8-14.9-17.4-23.8z"
                        p-id="8110"></path>
                      <path
                        d="M766.8 616.1c3.1 0 6.2-0.8 9.1-2.5 8.6-5 11.5-16.1 6.4-24.6-34.5-58.9-64.8-100.4-104.7-143.2-6.8-7.3-18.2-7.7-25.4-0.9s-7.7 18.2-0.9 25.5c38 40.7 66.9 80.4 99.9 136.8 3.4 5.8 9.4 8.9 15.6 8.9z"
                        p-id="8111"></path>
                    </svg>