<svg t="1586140659218" class="icon" viewBox="0 0 1024 1024" version="1.1"
                      xmlns="http://www.w3.org/2000/svg" p-id="28256" width="18" height="18">
                      <path
                        d="M847.43168 670.5664c0.26112 1.36192 0.26112 2.49856 0.26112 3.86048 0 12.94848-9.56928 23.6288-22.76352 27.48928 1.55136 3.6352 2.3296 7.49568 2.3296 11.36128 0 18.176-16.81408 32.7168-37.248 32.7168-3.88096 0-7.76192-0.45568-11.38176-1.59232-4.13696 10.68032-15.51872 18.40128-29.23008 18.40128-9.8304 0-18.62144-4.09088-24.31488-10.44992-4.39808 12.94848-18.10944 22.26688-34.14528 22.26688-11.38176 0-21.46816-4.77184-27.93472-12.04224-3.88096 14.76608-18.88256 25.90208-36.73088 25.90208-15.77984 0-29.48608-8.63232-34.9184-20.67456-6.46656 4.54656-14.48448 7.2704-23.53664 7.2704-12.416 0-23.53664-5.4528-30.52544-13.62944-6.21056 10.9056-18.88256 18.40128-33.62816 18.40128-15.26272 0-28.19584-7.95136-34.14528-19.08224-7.76192 8.17664-19.14368 13.17888-32.0768 13.17888-10.60352 0-20.17792-3.40992-27.4176-9.088-6.21056 13.62944-21.21216 23.17312-38.79936 23.17312-18.36544 0-33.88416-10.44992-39.5776-24.99072-2.3296 0.45568-4.9152 0.68096-7.5008 0.68096-14.22848 0-26.64448-7.04512-33.11104-17.26464a42.19904 42.19904 0 0 1-21.46816 5.90848c-20.69504 0-37.76512-14.76608-37.76512-33.17248 0-1.13664 0-2.49856 0.26112-3.6352h-1.03424c-20.69504 0-37.76512-14.76608-37.76512-33.17248 0-8.63232 3.61984-16.3584 9.8304-22.26688a28.35456 28.35456 0 0 1-4.13696-14.5408c0-4.09088 1.03424-8.17664 2.84672-11.81184-10.0864-5.22752-16.55296-14.76608-16.55296-25.90208 0-16.3584 14.7456-29.53728 33.36704-29.98784C228.18304 512.6656 292.07552 461.7728 368.64 461.7728h321.26464c58.71616 0 109.93152 29.76256 135.02464 73.15456 0.26112 0.45568 0.51712 0.68096 0.51712 1.13664 1.03424 1.8176 2.06848 3.6352 3.10272 5.67808 0.51712 1.13664 1.03424 2.27328 1.81248 3.6352 1.55136 3.6352 3.10272 7.2704 4.39808 11.13088 0.51712 1.36192 0.77824 2.49856 1.29536 3.86048 0.26112 1.13664 0.77824 2.49856 1.03424 3.6352 0 0.22528 0 0.45568 0.26112 0.68096 0.26112 0.90624 0.51712 2.04288 0.77824 2.95424 0 0.22528 0.26112 0.68096 0.26112 0.91136 0.26112 0.90624 0.51712 2.04288 0.51712 2.95424v0.45568c0.256 1.13664 0.51712 2.49856 0.77824 3.86048h0.26112c17.84832 0 32.3328 12.7232 32.3328 28.40064 0 6.36416-2.3296 12.26752-6.46656 17.03936a28.12928 28.12928 0 0 1 7.76192 19.31264c-0.7936 14.09024-11.65824 26.13248-26.14272 29.99296z"
                        fill="#FFFFFF" p-id="28257"></path>
                      <path
                        d="M626.26816 796.16c-15.16032 0-29.3376-6.96832-37.61664-17.95584a48.99328 48.99328 0 0 1-20.8384 4.55168c-10.752 0-21.23776-3.57376-29.48096-9.84064-8.50432 9.17504-21.08416 14.61248-34.66752 14.61248-13.91616 0-27.008-5.85216-35.52256-15.42656-8.63744 6.19008-19.2512 9.51808-30.69952 9.51808-8.84736 0-17.41312-2.0992-24.85248-6.01088-9.02656 12.42624-24.4224 20.096-41.36448 20.096-18.7392 0-35.73248-9.59488-44.11904-24.3968-14.5664 0.81408-29.10208-4.9408-38.30784-15.16032a49.11104 49.11104 0 0 1-19.2256 3.88608c-23.71072 0-43.2384-16.40448-45.27104-37.248-21.87776-2.92864-38.71744-19.93728-38.71744-40.40704 0-8.57088 2.91328-16.75264 8.30976-23.55712a35.42528 35.42528 0 0 1-2.61632-13.25056c0-2.88256 0.39424-5.80096 1.15712-8.64256-9.41056-7.04-14.86336-17.5104-14.86336-29.07136 0-18.6112 14.69952-33.92512 34.47296-37.08416C225.17248 503.83872 291.32288 454.0928 368.64 454.0928h321.26464c59.9296 0 114.21696 29.50144 141.67552 76.98944 0.2304 0.34816 0.69632 1.06496 1.05472 2.08896 0.95232 1.66912 1.85344 3.30752 2.7648 5.09952 0.58368 1.26976 0.9984 2.19648 1.63328 3.3024 0.13824 0.256 0.27136 0.51712 0.384 0.78336 1.50528 3.51744 3.21024 7.5008 4.61824 11.71456 0.22016 0.5632 0.4608 1.32608 0.70144 2.08896 0.14336 0.48128 0.29696 0.96256 0.49152 1.48992 0.12288 0.32768 0.2304 0.67072 0.31232 1.00864 0.08704 0.38912 0.22528 0.80896 0.35328 1.2288 0.19968 0.62976 0.38912 1.25952 0.54272 1.85344 0.10752 0.27136 0.2048 0.54272 0.28672 0.82432 0.1536 0.52736 0.3072 1.1264 0.45568 1.72032l0.32256 1.2288a22.1696 22.1696 0 0 1 0.78336 3.10272c19.1488 2.82624 33.65888 17.7152 33.65888 35.59936a32.9728 32.9728 0 0 1-4.56704 16.82432 35.54816 35.54816 0 0 1 5.8624 19.52256c-0.86016 15.72352-11.01312 29.19424-25.9072 35.39968-0.59904 12.89216-8.66816 24.36096-21.03296 30.49984 0.41984 2.23744 0.63488 4.5056 0.63488 6.80448 0 22.27712-20.15744 40.3968-44.92288 40.3968-2.52416 0-4.95616-0.16896-7.27552-0.50688-6.8096 10.56256-19.44576 17.31584-33.33632 17.31584a41.29792 41.29792 0 0 1-21.88288-6.15936c-7.77728 11.04384-21.376 17.97632-36.57728 17.97632-9.10336 0-17.79712-2.56-25.02144-7.2192-7.84384 12.81536-22.8096 21.08928-39.64928 21.08928z m-34.9184-36.03456a7.68512 7.68512 0 0 1 7.00416 4.52096c4.36224 9.66656 15.58016 16.1536 27.91936 16.1536 13.91104 0 26.23488-8.48384 29.30688-20.16768a7.69024 7.69024 0 0 1 13.17376-3.15392c5.34528 6.016 13.43488 9.46688 22.1952 9.46688 12.41088 0 23.45984-7.0144 26.87488-17.05472a7.66976 7.66976 0 0 1 12.99456-2.64704c4.48 5.01248 11.25888 7.88992 18.59072 7.88992 10.07104 0 18.93888-5.4272 22.07232-13.49632a7.68 7.68 0 0 1 9.46176-4.5568c2.62144 0.82432 5.67296 1.23904 9.07776 1.23904 16.30208 0 29.56288-11.22816 29.56288-25.0368 0-2.88256-0.57344-5.6832-1.71008-8.35072a7.67488 7.67488 0 0 1 4.90496-10.38336c10.31168-3.0208 17.23904-11.10528 17.23904-20.1216 0-1.20832-0.00512-1.81248-0.12288-2.45248a7.68 7.68 0 0 1 5.57056-8.832c11.45344-3.05152 19.85536-12.50816 20.43392-22.99392-0.01024-4.74624-2.02752-9.73312-5.6832-13.62432a7.68 7.68 0 0 1-0.20992-10.2912c3.00544-3.46624 4.58752-7.61344 4.58752-12.01152 0-11.42272-11.0592-20.72064-24.6528-20.72064-3.6864 0-7.10656-2.62144-7.79776-6.24128a104.29952 104.29952 0 0 0-0.72192-3.584 7.76192 7.76192 0 0 1-0.19456-1.7152c-0.0256-0.63488-0.13312-0.99328-0.22016-1.30048l-0.04096-0.1536a8.66816 8.66816 0 0 1-0.3328-1.16736c-0.10752-0.41472-0.22528-0.85504-0.3328-1.30048l-0.08704-0.32256a8.6528 8.6528 0 0 1-0.71168-2.41664c-0.0768-0.27136-0.16896-0.55808-0.26112-0.8448-0.18944-0.61952-0.37888-1.23904-0.53248-1.82784a43.46368 43.46368 0 0 1-0.62464-1.91488c-0.14848-0.48128-0.29696-0.96256-0.49664-1.48992a137.6256 137.6256 0 0 0-4.11648-10.4448 50.22208 50.22208 0 0 1-1.8688-3.7888c-0.8448-1.664-1.80736-3.33824-2.75968-5.0176a8.06912 8.06912 0 0 1-0.5632-1.22368l-0.00512-0.00512c-24.69888-42.72128-73.89184-69.28384-128.35328-69.28384H368.64c-72.03328 0-133.26336 47.08864-142.42816 109.53216a7.68 7.68 0 0 1-7.40864 6.56384c-14.51008 0.34816-25.87648 10.15296-25.87648 22.30784 0 7.92576 4.63872 15.0528 12.40576 19.08224a7.68 7.68 0 0 1 3.34336 10.24512 18.93376 18.93376 0 0 0-2.03776 8.39168c0 3.60448 1.05472 7.26528 3.0464 10.58816a7.68 7.68 0 0 1-1.29536 9.51296c-4.86912 4.62848-7.44448 10.40384-7.44448 16.70144 0 14.0544 13.49632 25.49248 30.08512 25.49248h1.03424a7.69536 7.69536 0 0 1 7.49056 9.37984c-0.11776 0.60416-0.06656 1.3312-0.06656 1.93536 0 14.0544 13.49632 25.49248 30.08512 25.49248a34.44224 34.44224 0 0 0 17.59232-4.85376 7.69536 7.69536 0 0 1 10.37312 2.52416c5.33504 8.44288 15.5392 13.69088 26.61376 13.69088 2.14528 0 4.22912-0.18432 6.03136-0.53248a7.66976 7.66976 0 0 1 8.6272 4.736c4.70528 12.032 17.73568 20.11136 32.42496 20.11136 14.1568 0 26.64448-7.33184 31.81056-18.67264 0.9728-2.14528 2.88256-3.72736 5.1712-4.28032a7.65952 7.65952 0 0 1 6.55872 1.41312c6.13376 4.80768 14.18752 7.45472 22.6816 7.45472 10.49088 0 19.90656-3.82976 26.50112-10.78272 1.69984-1.792 4.1472-2.65728 6.59968-2.32448 2.44736 0.32768 4.5824 1.81248 5.74464 3.98848 4.87936 9.12896 15.62112 15.0272 27.37152 15.0272 11.52512 0 21.85216-5.56544 26.95168-14.52032a7.68 7.68 0 0 1 12.51328-1.18272c5.85216 6.84544 15.07328 10.93632 24.68352 10.93632 7.04 0 13.65504-2.02752 19.11808-5.87264a7.5264 7.5264 0 0 1 4.40832-1.41824z"
                        fill="#1D1E21" p-id="28258"></path>
                      <path
                        d="M875.75552 493.06112c-14.7456-26.07616-48.4352-49.93024-71.19872-65.00864 10.0864 82.62144 13.7728 187.20768-105.472 157.99296-175.11936-43.03872-423.66976-131.77856-555.58656-8.00768 12.19584 22.19008 73.75872 85.5296 181.94432 57.27232 124.5696-54.3744 306.39104-23.1936 364.33408 16.38912 85.61664 58.43456 265.9072-17.89952 185.97888-158.63808z"
                        fill="#FFFFFF" p-id="28259"></path>
                      <path
                        d="M759.78752 679.168h-0.01024c-28.38528 0-54.08768-7.30624-74.33728-21.12-32.15872-21.97504-111.616-44.21632-201.25696-44.21632-59.09504 0-112.92672 9.86112-155.6736 28.5184a7.5776 7.5776 0 0 1-1.13152 0.38912c-18.74944 4.89984-37.24288 7.37792-54.96832 7.37792-80.45056 0-125.19424-49.36704-135.64416-68.38272a7.68 7.68 0 0 1 1.47456-9.29792c46.82752-43.93472 110.47936-65.28512 194.60096-65.28512 96.62976 0 203.99104 28.42112 298.72128 53.49888 24.32512 6.44096 47.29856 12.5184 69.35552 17.94048 12.96384 3.17952 24.81152 4.79232 35.20512 4.79232 20.1216 0 35.02592-5.79584 45.57312-17.7152 24.72448-27.9296 21.57568-84.76672 15.23712-136.6784a7.69024 7.69024 0 0 1 11.86304-7.33696c26.35264 17.4592 58.5472 40.92416 73.64096 67.63008 32.10752 56.53504 21.5296 98.14016 7.00416 123.09504-23.24992 39.95136-75.35616 66.7904-129.65376 66.7904z m-275.59936-80.6912c83.18976 0 169.51296 19.28192 209.92 46.88896 17.68448 12.06272 40.3968 18.44736 65.67936 18.44736 49.01376 0.00512 95.78496-23.77216 116.38272-59.1616 17.92512-30.79168 15.46752-68.06528-7.09632-107.79648-11.07968-19.60448-34.34496-38.4768-55.00416-53.02784 5.15584 50.48832 5.02272 102.77376-20.864 132.0192-19.84512 22.42048-52.00896 28.42624-95.94368 17.664-22.19008-5.4528-45.2352-11.55584-69.62688-18.01216-93.824-24.84224-200.16128-52.992-294.79424-52.992-77.21472 0-135.98208 18.61632-179.39968 56.86272 13.23008 18.52928 53.0432 55.38816 118.96832 55.38816 16.23552 0 33.2288-2.26304 50.51904-6.72768 44.57472-19.33312 100.32128-29.55264 161.25952-29.55264z"
                        fill="#1D1E21" p-id="28260"></path>
                      <path
                        d="M871.81312 483.66592c-16.81408-24.31488-40.61184-42.94144-67.25632-55.61344-39.8336-19.14368-114.3296-47.0784-227.10784-60.01152-20.69504-2.3296-46.1568-3.81952-69.69856-5.11488-23.28064 1.29536-42.04544 2.78528-62.74048 5.11488-112.77824 12.93312-187.01824 40.86784-227.10784 60.01152-26.64448 12.93312-50.44224 31.29856-67.2512 55.61344-79.92832 115.88096 96.9984 171.75552 185.984 130.62656 92.60544-42.94144 291.00032-32.59392 348.94336 0 85.87264 48.11264 266.1632-14.74048 186.23488-130.62656z"
                        fill="#FFFFFF" p-id="28261"></path>
                      <path
                        d="M755.72736 638.26432c-28.1856 0-53.73952-5.96992-73.9072-17.26976-29.21984-16.44032-98.19136-27.47392-171.63264-27.47392-70.2208 0-132.3008 10.112-170.32704 27.74016-20.05504 9.27232-44.77952 14.17216-71.5008 14.17216-51.9424 0-114.56-19.44576-137.37472-62.88384-10.05056-19.13856-15.89248-50.85696 13.3376-93.2352 16.63488-24.04864 40.25344-43.61728 70.22592-58.1632 43.28448-20.66944 118.21056-47.95904 229.58592-60.73344 20.1984-2.27328 39.0912-3.8144 63.18592-5.15072 0.27648-0.02048 0.5632-0.01536 0.84992 0 24.09984 1.32608 49.36704 2.816 70.13376 5.15072 112.05632 12.8512 186.69056 40.1152 229.57568 60.7232 29.2608 13.91616 53.56032 34.03264 70.2464 58.16832 29.26592 42.42944 23.06048 74.84416 12.70272 94.5664-19.90144 37.90848-75.46368 64.38912-135.10144 64.38912z m-245.53984-60.10368c77.0304 0 147.35872 11.55584 179.15392 29.44 17.86368 10.0096 40.82688 15.30368 66.3808 15.30368 54.17472 0.00512 104.14592-23.10144 121.51296-56.18176 12.20096-23.23456 8.24832-49.71008-11.74016-78.69952-15.16032-21.9136-37.37088-40.25856-64.23552-53.03808-41.84576-20.11136-114.76992-46.70976-224.68608-59.3152-20.22912-2.27328-45.07136-3.74272-68.81792-5.05344-23.58784 1.31584-42.12224 2.83136-61.88544 5.05344-109.25056 12.52864-182.4768 39.168-224.65536 59.31008-27.51488 13.35808-49.14688 31.21152-64.24576 53.04832-19.968 28.94848-24.13568 54.98368-12.38016 77.36832 16.90112 32.18432 67.79392 54.66624 123.77088 54.66624 24.51456 0 47.01184-4.4032 65.0496-12.74368 54.72256-25.37472 134.2464-29.1584 176.77824-29.1584z"
                        fill="#1D1E21" p-id="28262"></path>
                      <path
                        d="M868.88448 483.66592c-16.81408-24.31488-40.61184-42.94144-67.2512-55.61344-39.8336-19.14368-114.3296-47.0784-227.10784-60.01152-20.69504-2.3296-43.22816-3.81952-66.76992-5.11488-23.28064 1.29536-44.97408 2.78528-65.66912 5.11488-49.87904 5.71904-92.19072 14.37696-127.37536 23.9104 36.54656 54.29248 57.87136 119.2192 57.87136 189.04064 0 6.68672-0.24576 13.312-0.62976 19.90656 100.75648-26.67008 259.82976-15.21152 310.69184 13.39904 85.87776 48.10752 266.16832-14.7456 186.24-130.63168z"
                        fill="#FFFFFF" p-id="28263"></path>
                      <path
                        d="M752.7936 638.26432c-28.1856 0-53.73952-5.96992-73.9072-17.26976-29.21472-16.43008-98.16576-27.4688-171.59168-27.4688-49.96608 0-97.33632 5.25312-133.38112 14.7968a7.66976 7.66976 0 0 1-9.63072-7.87456 330.9568 330.9568 0 0 0 0.6144-19.456c0-65.8944-19.5584-129.77664-56.56064-184.75008a7.68 7.68 0 0 1 4.36224-11.6992c39.89504-10.80832 83.12832-18.92352 128.50688-24.12544 18.19136-2.048 37.95968-3.58912 66.11968-5.15072 0.27648-0.02048 0.5632-0.01536 0.84992 0 20.71552 1.14176 44.9024 2.64192 67.20512 5.15072 112.05632 12.8512 186.69056 40.1152 229.57568 60.7232 29.2608 13.91616 53.56032 34.03264 70.2464 58.16832 29.26592 42.42944 23.06048 74.84416 12.70272 94.5664-19.91168 37.90848-75.4688 64.38912-135.11168 64.38912z m-245.49376-60.09856c77.01504 0 147.32288 11.55584 179.11296 29.43488 17.86368 10.0096 40.82688 15.30368 66.3808 15.30368 54.17472 0.00512 104.14592-23.10144 121.51296-56.18176 12.20096-23.23456 8.24832-49.71008-11.74016-78.69952-15.16032-21.9136-37.37088-40.25856-64.23552-53.03808-41.84576-20.11136-114.76992-46.70976-224.68608-59.3152-21.74976-2.44736-45.48608-3.92704-65.88928-5.05344-27.62752 1.54112-47.03232 3.05664-64.81408 5.05344-40.73984 4.66944-79.70816 11.72992-115.9936 20.99712 34.91328 55.43936 53.31456 118.92736 53.31456 184.32 0 3.22048-0.05632 6.52288-0.16384 9.96864 45.056-10.49088 93.47584-12.78976 127.20128-12.78976z"
                        fill="#1D1E21" p-id="28264"></path>
                      <path
                        d="M868.88448 483.66592c-16.81408-24.31488-40.61184-42.94144-67.25632-55.61344-39.8336-19.14368-114.3296-47.0784-227.10784-60.01152-20.69504-2.3296-43.22816-3.81952-66.7648-5.11488-1.73056 0.09728 1.7152-0.1024 0 0 41.22624 56.40704 60.98432 125.3888 60.98432 199.95648 0 8.58112-0.43008 17.05984-1.05984 25.48224 49.73056 4.1984 92.71808 13.4144 114.9696 25.92768 85.87264 48.11264 266.1632-14.74048 186.23488-130.62656z"
                        fill="#FFFFFF" p-id="28265"></path>
                      <path
                        d="M752.7936 638.26432c-28.1856 0-53.73952-5.96992-73.9072-17.26976-20.64896-11.61728-61.41952-20.71552-111.86176-24.97536a7.68 7.68 0 0 1-7.0144-8.22784c0.71168-9.472 1.03936-17.3824 1.03936-24.90368 0-73.7536-20.1216-140.65664-58.20928-193.6384a7.66464 7.66464 0 0 1-2.24768-10.12736c2.24768-3.90144 6.31296-3.90144 7.64416-3.90144 0.46592 0 0.91648 0.04096 1.3568 0.11776 20.39296 1.13152 43.9808 2.62144 65.77664 5.07392 112.05632 12.8512 186.69568 40.1152 229.57568 60.7232 29.2608 13.91616 53.56032 34.03264 70.2464 58.16832 29.26592 42.42944 23.06048 74.84416 12.70272 94.5664-19.90144 37.9136-75.45856 64.39424-135.10144 64.39424z m-176.95232-56.87296c49.13664 4.7104 89.1648 14.17216 110.57152 26.20928 17.86368 10.0096 40.82688 15.30368 66.3808 15.30368 54.17472 0.00512 104.14592-23.10144 121.51296-56.18176 12.20096-23.23456 8.24832-49.71008-11.74016-78.69952-15.16032-21.9136-37.37088-40.25856-64.23552-53.03808-41.84576-20.11136-114.76992-46.70976-224.68608-59.3152-16.51712-1.85856-34.17088-3.15904-50.64192-4.16768 34.9952 53.67808 53.41184 119.4752 53.41184 191.38048 0 5.8112-0.18432 11.82208-0.57344 18.5088z"
                        fill="#1D1E21" p-id="28266"></path>
                      <path
                        d="M872.93952 483.67104c-16.81408-24.31488-40.61184-42.94144-67.25632-55.61344-19.47136-9.35424-47.28832-20.8128-83.75296-31.5904a336.57856 336.57856 0 0 1 35.80416 151.33184c0 28.46208-3.60448 56.09472-10.2656 82.54976 87.40352 4.4544 189.23008-54.23616 125.47072-146.67776z"
                        fill="#FFFFFF" p-id="28267"></path>
                      <path
                        d="M756.85888 638.26432h-0.01536c-3.26144 0-6.52288-0.08192-9.75872-0.24576a7.66976 7.66976 0 0 1-7.05536-9.54368 330.5728 330.5728 0 0 0 10.03008-80.67584c0-51.82976-11.77088-101.58592-34.99008-147.8912a7.68 7.68 0 0 1 9.04192-10.80832c31.45728 9.30304 60.02176 20.08064 84.89472 32.03584 29.25568 13.91616 53.5552 34.03264 70.2464 58.16832 29.27104 42.43456 23.0656 74.84928 12.70784 94.5664-19.90656 37.9136-75.46368 64.39424-135.10144 64.39424z m-20.5568-229.30432c19.33312 43.8784 29.12256 90.496 29.12256 138.84416 0 25.19552-2.78528 50.41664-8.28416 75.10528 54.0672-0.0768 103.88992-23.15264 121.23136-56.17664 12.20096-23.23456 8.2432-49.71008-11.74528-78.69952-15.16032-21.91872-37.376-40.25856-64.23552-53.03808-19.43552-9.33888-42.01472-18.2272-66.08896-26.0352z"
                        fill="#1D1E21" p-id="28268"></path>
                      <path
                        d="M766.46912 319.59552m-19.68128 0a19.68128 19.68128 0 1 0 39.36256 0 19.68128 19.68128 0 1 0-39.36256 0Z"
                        fill="#FFFFFF" p-id="28269"></path>
                      <path
                        d="M766.46912 346.95168a27.392 27.392 0 0 1-27.36128-27.35616c0-15.08864 12.27264-27.36128 27.36128-27.36128s27.36128 12.27264 27.36128 27.36128a27.392 27.392 0 0 1-27.36128 27.35616z m0-39.35744a12.01664 12.01664 0 0 0-12.00128 12.00128c0 6.61504 5.38624 11.99616 12.00128 11.99616s12.00128-5.38112 12.00128-11.99616a12.01664 12.01664 0 0 0-12.00128-12.00128z"
                        fill="#1D1E21" p-id="28270"></path>
                      <path
                        d="M986.28608 400.97792m-19.44064 0a19.44064 19.44064 0 1 0 38.88128 0 19.44064 19.44064 0 1 0-38.88128 0Z"
                        fill="#FFFFFF" p-id="28271"></path>
                      <path
                        d="M986.28608 428.09856a27.15136 27.15136 0 0 1-27.12064-27.12064c0-14.95552 12.16512-27.12576 27.12064-27.12576s27.12576 12.16512 27.12576 27.12576a27.15648 27.15648 0 0 1-27.12576 27.12064z m0-38.8864a11.776 11.776 0 0 0-11.76064 11.76576c0 6.48704 5.2736 11.76064 11.76064 11.76064s11.76576-5.27872 11.76576-11.76064a11.78112 11.78112 0 0 0-11.76576-11.76576z"
                        fill="#1D1E21" p-id="28272"></path>
                      <path
                        d="M185.2416 329.00608m-25.79456 0a25.79456 25.79456 0 1 0 51.58912 0 25.79456 25.79456 0 1 0-51.58912 0Z"
                        fill="#FFFFFF" p-id="28273"></path>
                      <path
                        d="M185.24672 362.47552c-18.4576 0-33.47456-15.01696-33.47456-33.47456s15.01696-33.47456 33.47456-33.47456 33.47456 15.01696 33.47456 33.47456-15.01696 33.47456-33.47456 33.47456z m0-51.584c-9.98912 0-18.11456 8.12544-18.11456 18.11456s8.12544 18.11456 18.11456 18.11456 18.11456-8.12544 18.11456-18.11456-8.13056-18.11456-18.11456-18.11456z"
                        fill="#1D1E21" p-id="28274"></path>
                      <path
                        d="M529.40288 160.09728m-25.79456 0a25.79456 25.79456 0 1 0 51.58912 0 25.79456 25.79456 0 1 0-51.58912 0Z"
                        fill="#FFFFFF" p-id="28275"></path>
                      <path
                        d="M529.39776 193.57184c-18.45248 0-33.46944-15.01696-33.46944-33.47456s15.01696-33.47456 33.46944-33.47456c18.4576 0 33.47456 15.01696 33.47456 33.47456s-15.01184 33.47456-33.47456 33.47456z m0-51.58912c-9.984 0-18.10944 8.12544-18.10944 18.11456s8.12544 18.11456 18.10944 18.11456c9.98912 0 18.11456-8.12544 18.11456-18.11456s-8.12032-18.11456-18.11456-18.11456z"
                        fill="#1D1E21" p-id="28276"></path>
                      <path d="M966.6048 568.61184l39.3472 39.3472-39.3472 39.34208-39.3472-39.34208z" fill="#FFFFFF"
                        p-id="28277"></path>
                      <path
                        d="M966.61504 654.99136c-1.96608 0-3.93216-0.74752-5.43232-2.24768l-39.3472-39.3472a7.68 7.68 0 0 1 0-10.85952l39.3472-39.3472a7.68 7.68 0 0 1 10.85952 0l39.3472 39.3472a7.68 7.68 0 0 1 0 10.85952l-39.3472 39.3472a7.6544 7.6544 0 0 1-5.4272 2.24768z m-28.48256-47.0272l28.48256 28.48256 28.48256-28.48256-28.48256-28.48256-28.48256 28.48256z"
                        fill="#1D1E21" p-id="28278"></path>
                    </svg>