<svg t="1586140630413" class="icon" viewBox="0 0 1024 1024" version="1.1"
                      xmlns="http://www.w3.org/2000/svg" p-id="25136" width="18" height="18">
                      <path
                        d="M640.2 337.1c0.7-1.3 1.1-2.8 1.2-4.3 1.8-17 43.8-38.4 71.5-47.4 3.8-1.3 6.7-4.3 7.8-8.2 1.1-3.8 0.2-8-2.4-11-22.3-26.2-53.4-34.3-90-23.8-10.3 3-19.7 7.1-27.2 11 2.4-6.8 6.9-16 14.4-27.8 12.2-19.2 26.4-35.8 26.6-35.9 4.2-4.8 3.8-12.1-0.8-16.5-7.3-7-16.8-10.6-27.4-10.2-28.1 0.9-60.6 28.9-75.9 43.7-15.3-14.8-47.7-42.8-75.9-43.7-10.6-0.3-20.2 3.2-27.4 10.2-4.6 4.4-5 11.7-0.8 16.5 0.1 0.2 14.2 16.5 26.4 35.7 7.6 11.9 12.1 21.1 14.5 28-7.5-3.9-16.9-8.1-27.2-11-36.6-10.6-67.7-2.3-90 23.8-2.6 3-3.5 7.2-2.4 11s4.1 6.9 7.8 8.2c0.2 0.1 18.1 6 36.2 15.7 21 11.2 33.5 22.8 34.6 31.8 0.1 0.9 0.3 1.8 0.6 2.6-108.8 49.1-187.2 177.2-187.2 345.6 0 158 91.2 280.8 286 280.8 198.2 0 295.5-145.3 295.5-303.2 0-145.7-79.8-271.3-188.5-321.6z m-186.3 430L554 667.9l90 93.6-99.2 100.7-90.9-95.1z m82.4 103.6L482 925.9c-54.5-7.7-97.7-28-130.2-57.6l93.5-92.7 91 95.1zM276.7 679c-0.2-25.9 1.6-50.8 5.3-74.4l46.9 49.1-51 51.4c-0.7-8.6-1.1-17.3-1.2-26.1z m7.8-89.1c10.5-54.7 31.2-102.4 59.2-140.7l92.7 96.4-99 99.6-52.9-55.3z m160.2-35.7l101.4 105.5-100.3 99-100.1-104.9 99-99.6z m8.5-8.5L557 441.2l105 104.2-107.4 105.9-101.4-105.6z m109.2 113.7l107.2-106.3 90.7 90-108 109.8-89.9-93.5z m115.8-114.8l70.2-69.6c24 38.3 40.8 83.1 47.8 131.6l-27.4 27.9-90.6-89.9z m90.7 106.9l30.1 29.9c-4.3 59.9-24.6 116.4-61.3 160.3l-77-80.1 108.2-110.1z m8.4-8.5l20.8-21.1c1.1 10.5 1.6 21.2 1.7 32 0 3.8 0 7.6-0.1 11.4L777.3 643z m-34.9-177.1l-72 71-105-104.2 64.8-65.2c44.1 20.6 82.9 54.9 112.2 98.4z m-124-103.5l-61.5 61.9-72.9-72.4c15.9-3.8 32.3-5.8 49-6 29.6-0.2 58.4 5.6 85.4 16.5z m-207.9-82.6c-7.4-3.9-14.7-7.4-21-10 13.9-8.6 31-10.2 50.9-4.6 21.9 6.2 39.2 19 39.4 19.1 2.8 2.1 6.2 2.8 9.6 2.2 3.4-0.6 6.2-2.7 8-5.7 8.6-14.7 3.1-37.1-16.8-68.3-6.2-9.8-12.7-18.7-18-25.5 19.8 1.5 50.9 27.8 66.2 44.4 2.5 2.7 5.9 4 9.3 3.9 3.4 0.1 6.8-1.2 9.3-3.9 10.2-11.1 44-42.6 66.2-44.4-5.3 6.9-11.8 15.8-18 25.5-19.9 31.2-25.4 53.5-16.8 68.3 1.8 3 4.6 5 8 5.7 3.4 0.6 6.9-0.1 9.6-2.2 0.2-0.2 17.4-12.9 39.4-19.1 19.8-5.6 36.9-4.2 50.8 4.5-6.4 2.6-13.8 6-21.3 10-28.4 15.1-44.3 31.2-47.3 48.3-26.3-9.4-54-14.4-82.5-14.4-27.1 0-53.5 4.4-78.4 12.9-3.7-16.5-19.3-32.2-46.6-46.7z m60.1 75.8l77.8 77.2L444.8 537 351 439.5c32.5-40.8 73.6-69.9 119.6-83.9zM279.5 720.4l57.7-58 100.1 104.7-94.1 92.9c-35.5-36.3-56.4-84.6-63.7-139.6z m217.6 207.3l47.5-48.3 43.4 45.4c-16.2 2.7-33.4 4.3-51.6 4.4-13.7 0.2-26.8-0.4-39.3-1.5z m104.9-5.6l-49-51.3L652.2 770l77.5 80.6c-31.7 34.3-74.2 59.8-127.7 71.5z"
                        fill="#333333" p-id="25137"></path>
                    </svg>